<svg width="80" height="80" viewBox="0 0 80 80" fill="none" xmlns="http://www.w3.org/2000/svg">
<mask id="mask0_2380_580" style="mask-type:alpha" maskUnits="userSpaceOnUse" x="0" y="0" width="80" height="80">
<rect width="80" height="80" fill="#D9D9D9"/>
</mask>
<g mask="url(#mask0_2380_580)">
<path d="M26.666 22.5641C27.3541 22.5641 27.9534 22.3088 28.4641 21.7981C28.9748 21.2874 29.2301 20.6881 29.2301 20C29.2301 19.3119 28.9748 18.7126 28.4641 18.2019C27.9534 17.6912 27.3541 17.4359 26.666 17.4359C25.978 17.4359 25.3786 17.6912 24.8679 18.2019C24.3573 18.7126 24.1019 19.3119 24.1019 20C24.1019 20.6881 24.3573 21.2874 24.8679 21.7981C25.3786 22.3088 25.978 22.5641 26.666 22.5641ZM36.666 22.5641C37.3541 22.5641 37.9534 22.3088 38.4641 21.7981C38.9748 21.2874 39.2301 20.6881 39.2301 20C39.2301 19.3119 38.9748 18.7126 38.4641 18.2019C37.9534 17.6912 37.3541 17.4359 36.666 17.4359C35.978 17.4359 35.3786 17.6912 34.8679 18.2019C34.3573 18.7126 34.1019 19.3119 34.1019 20C34.1019 20.6881 34.3573 21.2874 34.8679 21.7981C35.3786 22.3088 35.978 22.5641 36.666 22.5641ZM39.9993 58.3333C43.0293 58.3333 45.6201 57.2991 47.7718 55.2308C49.9235 53.1624 50.9994 50.6411 50.9994 47.6667C50.9994 46.2692 50.7643 44.9134 50.2943 43.5993C49.8242 42.2852 49.0977 41.1367 48.1148 40.1538L39.9993 32.0384L32.1532 39.8846C31.1019 40.9359 30.2995 42.1324 29.7461 43.4743C29.1927 44.8162 28.9438 46.2137 28.9993 47.6667C29.1105 50.6411 30.228 53.1624 32.3519 55.2308C34.4758 57.2991 37.025 58.3333 39.9993 58.3333ZM39.9993 55.2692C37.8626 55.2692 36.0507 54.5363 34.5634 53.0705C33.0763 51.6047 32.3327 49.8034 32.3327 47.6667C32.3327 46.6624 32.4962 45.7105 32.8231 44.8109C33.15 43.9114 33.6831 43.0919 34.4224 42.3526L39.9993 36.7757L45.8134 42.5897C46.4673 43.2436 46.9395 44.0235 47.2301 44.9295C47.5207 45.8355 47.666 46.7479 47.666 47.6667C47.666 49.8034 46.9224 51.6047 45.4353 53.0705C43.948 54.5363 42.1361 55.2692 39.9993 55.2692ZM22.0506 70C20.5592 70 19.2888 69.4754 18.2397 68.4263C17.1906 67.3772 16.666 66.1069 16.666 64.6154V15.3846C16.666 13.8931 17.1906 12.6228 18.2397 11.5737C19.2888 10.5246 20.5592 10 22.0506 10H57.9481C59.4395 10 60.7099 10.5246 61.759 11.5737C62.8081 12.6228 63.3327 13.8931 63.3327 15.3846V64.6154C63.3327 66.1069 62.8081 67.3772 61.759 68.4263C60.7099 69.4754 59.4395 70 57.9481 70H22.0506ZM22.0506 66.6667H57.9481C58.5464 66.6667 59.0378 66.4744 59.4224 66.0897C59.807 65.7051 59.9994 65.2137 59.9994 64.6154V15.3846C59.9994 14.7863 59.807 14.2949 59.4224 13.9102C59.0378 13.5256 58.5464 13.3333 57.9481 13.3333H22.0506C21.4523 13.3333 20.9609 13.5256 20.5763 13.9102C20.1917 14.2949 19.9993 14.7863 19.9993 15.3846V64.6154C19.9993 65.2137 20.1917 65.7051 20.5763 66.0897C20.9609 66.4744 21.4523 66.6667 22.0506 66.6667Z" fill="white"/>
</g>
</svg>
