<svg width="81" height="80" viewBox="0 0 81 80" fill="none" xmlns="http://www.w3.org/2000/svg">
<mask id="mask0_2380_588" style="mask-type:alpha" maskUnits="userSpaceOnUse" x="0" y="0" width="81" height="80">
<rect x="0.332031" width="80" height="80" fill="#D9D9D9"/>
</mask>
<g mask="url(#mask0_2380_588)">
<path d="M40.3432 70C36.1947 70 32.2944 69.2128 28.6424 67.6384C24.9903 66.064 21.8135 63.9272 19.1119 61.2283C16.4104 58.5293 14.2718 55.3554 12.6959 51.7068C11.12 48.0582 10.332 44.1596 10.332 40.0112C10.332 35.8627 11.1192 31.9624 12.6936 28.3103C14.2681 24.6583 16.4048 21.4815 19.1038 18.7799C21.8028 16.0784 24.9766 13.9397 28.6252 12.3638C32.2739 10.7879 36.1724 10 40.3209 10C44.4694 10 48.3696 10.7872 52.0217 12.3616C55.6738 13.936 58.8506 16.0727 61.5521 18.7717C64.2536 21.4707 66.3923 24.6446 67.9682 28.2932C69.5441 31.9418 70.332 35.8404 70.332 39.9888C70.332 44.1373 69.5448 48.0376 67.9704 51.6897C66.396 55.3417 64.2593 58.5185 61.5603 61.2201C58.8613 63.9216 55.6875 66.0603 52.0389 67.6362C48.3902 69.2121 44.4916 70 40.3432 70ZM38.6654 66.6282V13.3718C31.644 14.2906 25.722 17.2244 20.8994 22.1731C16.0767 27.1218 13.6654 33.0641 13.6654 40C13.6654 46.9359 16.0767 52.8782 20.8994 57.8269C25.722 62.7756 31.644 65.7094 38.6654 66.6282ZM41.9987 66.6282C44.5201 66.4786 46.9603 66.0182 49.3192 65.2468C51.6782 64.4754 53.8149 63.2821 55.7294 61.6667H41.9987V66.6282ZM41.9987 58.3333H59.6269C60.6269 57.3632 61.5073 56.3226 62.2679 55.2115C63.0286 54.1004 63.6824 52.9188 64.2295 51.6667H41.9987V58.3333ZM41.9987 48.3333H65.6525C66.0201 47.2222 66.3021 46.1111 66.4987 45C66.6953 43.8889 66.8491 42.7778 66.9602 41.6667H41.9987V48.3333ZM41.9987 38.3333H66.9602C66.8491 37.2222 66.6953 36.1111 66.4987 35C66.3021 33.8889 66.0201 32.7778 65.6525 31.6667H41.9987V38.3333ZM41.9987 28.3333H64.2295C63.6824 27.0812 63.0286 25.8996 62.2679 24.7885C61.5073 23.6774 60.6269 22.6368 59.6269 21.6667H41.9987V28.3333ZM41.9987 18.3333H55.7294C53.8149 16.7179 51.6782 15.5246 49.3192 14.7532C46.9603 13.9818 44.5201 13.5214 41.9987 13.3718V18.3333Z" fill="white"/>
</g>
</svg>
