<svg width="128" height="73" viewBox="0 0 128 73" fill="none" xmlns="http://www.w3.org/2000/svg">
<path fill-rule="evenodd" clip-rule="evenodd" d="M23.3968 25.7041C23.4507 27.913 22.9275 30.0976 21.8791 32.0414C21.5093 32.7056 21.0096 33.2881 20.4098 33.7542C19.81 34.2202 19.1226 34.5602 18.3886 34.7537C17.6714 34.9132 16.9297 34.9281 16.2067 34.7975C15.4837 34.6669 14.7938 34.3935 14.1772 33.9932C12.9265 33.0857 12.0034 31.7959 11.5466 30.3176C10.8871 28.2223 10.6633 26.0137 10.889 23.8282C11.0054 21.8059 11.6748 19.8546 12.824 18.188C13.2546 17.6126 13.7972 17.1307 14.4188 16.7712C15.0405 16.4118 15.7284 16.1823 16.441 16.0967C17.682 15.9227 18.9445 16.192 20.0074 16.8572C21.1184 17.6371 21.9655 18.7381 22.4356 20.0132C23.1383 21.8383 23.4653 23.787 23.3968 25.7421V25.7041ZM33.1349 21.5468C33.6012 24.0602 33.6012 26.6382 33.1349 29.1516C32.6789 31.7197 31.5826 34.1308 29.9479 36.1606C28.0852 38.3924 25.6229 40.042 22.853 40.9136C20.3363 41.724 17.6797 42.0045 15.0498 41.7374C11.8916 41.4764 8.87736 40.3006 6.37406 38.3533C3.94005 36.3675 2.20303 33.6541 1.41649 30.6091C1.07387 29.304 0.874555 27.9652 0.822083 26.6166C0.822083 17.7613 0.822083 8.88911 0.822083 0H10.9396C10.9396 3.37144 10.9396 6.74288 10.9396 10.1397C14.1682 9.03854 17.6212 8.76833 20.9812 9.35385C24.0479 9.85944 26.8838 11.3026 29.1005 13.4858C31.2636 15.6745 32.7067 18.4742 33.236 21.5088L33.1349 21.5468ZM66.3456 0.0633768H76.071C76.071 7.57941 76.071 15.0828 76.071 22.5988C76.2348 22.4684 76.3685 22.3041 76.4631 22.1171C79.1569 18.0106 81.876 13.9167 84.5698 9.79745H97.2166C93.1359 14.7067 89.0383 19.6076 84.9239 24.5C84.8353 24.5887 84.7721 24.7154 84.9239 24.8042C89.4894 30.2289 94.0802 35.6283 98.6204 41.053H86.2518C86.1982 41.0598 86.1439 41.0516 86.0947 41.0292C86.0456 41.0068 86.0036 40.9712 85.9736 40.9262C82.6854 36.1352 79.4098 31.3316 76.0963 26.5533C76.0963 31.3823 76.0963 36.1986 76.0963 41.0276C74.7305 41.091 73.352 41.0276 71.9861 41.0276H66.3835L66.3456 0.0633768ZM64.3094 28.5939H44.1503C44.2664 30.03 44.9326 31.3654 46.0094 32.3202C47.6791 33.6614 49.7387 34.4221 51.8776 34.4875C55.177 34.6456 58.4783 34.2164 61.6283 33.2201C62.0457 35.4255 62.4883 37.6182 62.893 39.8236C59.171 41.197 55.2229 41.8507 51.2579 41.7501C48.868 41.7246 46.4994 41.2961 44.2515 40.4826C42.631 39.9138 41.1269 39.0549 39.8124 37.9477C38.3836 36.7227 37.2323 35.2059 36.4357 33.4989C35.3591 31.1111 34.8236 28.514 34.8675 25.8942C34.8433 23.3056 35.3468 20.7394 36.3472 18.3528C37.4488 15.7008 39.2773 13.4158 41.6209 11.762C43.8327 10.245 46.4088 9.34792 49.0826 9.16372C51.2799 8.95013 53.4977 9.17412 55.6084 9.8228C57.3556 10.3946 58.948 11.3617 60.2624 12.6492C61.4806 13.8608 62.4515 15.2987 63.1206 16.8825C64.6045 20.5975 65.0164 24.6556 64.3094 28.5939ZM44.0744 21.9017H55.5704C55.6286 20.1946 55.077 18.5227 54.0149 17.1867C53.5329 16.6645 52.945 16.2517 52.2905 15.9762C51.6361 15.7008 50.9303 15.569 50.2208 15.5897C48.8324 15.5275 47.4734 16.0042 46.4268 16.9206C45.0886 18.2482 44.2793 20.0191 44.1503 21.9017H44.0744ZM127.089 23.0677C127.59 27.1346 126.732 31.2535 124.648 34.7791C122.738 37.7261 119.855 39.9065 116.503 40.9389C114.009 41.7325 111.38 42.0085 108.776 41.7501C106.079 41.5324 103.475 40.6625 101.188 39.2152C99.0014 37.7827 97.251 35.7743 96.129 33.4102C94.5685 29.8631 94.1272 25.9227 94.8643 22.1171C95.3622 18.9681 96.82 16.0505 99.0378 13.7646C101.081 11.6862 103.674 10.2352 106.512 9.58198C107.56 9.33924 108.626 9.1782 109.699 9.10034C112.334 8.89164 114.983 9.23701 117.477 10.1143C120.567 11.2351 123.185 13.3761 124.901 16.1855C126.143 18.2764 126.903 20.6191 127.127 23.0424L127.089 23.0677ZM116.971 27.4405C117.272 25.042 117.026 22.6064 116.25 20.3174C115.782 18.9375 114.899 17.7373 113.721 16.8825C112.66 16.1658 111.37 15.872 110.104 16.0587C108.978 16.1719 107.92 16.6528 107.094 17.4276C106.055 18.4786 105.32 19.7929 104.969 21.2299C104.496 23.0657 104.33 24.9672 104.476 26.8575C104.569 28.4225 104.95 29.9567 105.602 31.3823C106.154 32.5835 107.064 33.5841 108.207 34.2467C109.312 34.8176 110.574 35.0091 111.799 34.7917C113.144 34.5164 114.331 33.7308 115.112 32.599C116.125 31.0867 116.743 29.3433 116.908 27.5292L116.971 27.4405ZM29.5179 58.2144C60.7641 53.8205 92.023 49.4182 123.295 45.0075C123.295 48.2902 123.295 51.5729 123.295 54.8556C114.366 56.1231 105.462 57.3905 96.5464 58.658C64.6509 63.1194 32.726 67.5936 0.771484 72.0804C0.771484 68.8103 0.771484 65.5361 0.771484 62.2576C10.3831 60.9394 19.9948 59.5579 29.619 58.2144H29.5179Z" fill="#0180C9"/>
</svg>
