<svg width="81" height="80" viewBox="0 0 81 80" fill="none" xmlns="http://www.w3.org/2000/svg">
<mask id="mask0_2380_572" style="mask-type:alpha" maskUnits="userSpaceOnUse" x="0" y="0" width="81" height="80">
<rect x="0.666016" width="80" height="80" fill="#D9D9D9"/>
</mask>
<g mask="url(#mask0_2380_572)">
<path d="M23.9986 30.923L18.037 34.2308C17.3874 34.5897 16.7464 34.6901 16.114 34.532C15.4815 34.3739 14.9857 33.97 14.6267 33.3204L10.5242 26.1409C10.1652 25.4914 10.0648 24.8397 10.2229 24.1858C10.381 23.5319 10.7849 23.0255 11.4344 22.6666L27.2678 13.3333H31.3062C31.9345 13.3333 32.4334 13.5181 32.8031 13.8878C33.1727 14.2574 33.3576 14.7563 33.3576 15.3845V16.0255C33.3576 17.9871 34.0851 19.6954 35.5402 21.1505C36.9954 22.6057 38.7037 23.3333 40.6652 23.3333C42.6268 23.3333 44.3351 22.6057 45.7902 21.1505C47.2454 19.6954 47.9729 17.9871 47.9729 16.0255V15.3845C47.9729 14.7563 48.1577 14.2574 48.5274 13.8878C48.8971 13.5181 49.396 13.3333 50.0242 13.3333H54.0627L69.8961 22.6666C70.5456 23.0255 70.9495 23.5319 71.1076 24.1858C71.2657 24.8397 71.1653 25.4914 70.8063 26.1409L66.7037 33.3204C66.3447 33.97 65.8522 34.3707 65.2262 34.5224C64.6001 34.6741 63.9559 34.5704 63.2935 34.2115L57.3319 30.9422V64.1025C57.3319 64.8333 57.0873 65.4433 56.598 65.9327C56.1087 66.4219 55.4986 66.6666 54.7678 66.6666H26.5627C25.8319 66.6666 25.2218 66.4219 24.7325 65.9327C24.2432 65.4433 23.9986 64.8333 23.9986 64.1025V30.923ZM27.3319 25.3333V63.3333H53.9986V25.3333L64.2037 30.9358L67.5755 25.1666L53.3062 16.7051H51.1909C50.9986 19.4956 49.9099 21.8535 47.9248 23.7788C45.9398 25.704 43.52 26.6666 40.6652 26.6666C37.8105 26.6666 35.3907 25.704 33.4057 23.7788C31.4206 21.8535 30.3319 19.4956 30.1396 16.7051H28.0242L13.755 25.1666L17.1267 30.9358L27.3319 25.3333Z" fill="white"/>
</g>
</svg>
