<svg width="127" height="72" viewBox="0 0 127 72" fill="none" xmlns="http://www.w3.org/2000/svg">
<path fill-rule="evenodd" clip-rule="evenodd" d="M22.6001 25.6754C22.6539 27.8818 22.1314 30.064 21.0841 32.0056C20.7147 32.6691 20.2155 33.251 19.6164 33.7165C19.0173 34.1821 18.3306 34.5217 17.5975 34.715C16.8811 34.8742 16.1402 34.8891 15.418 34.7587C14.6958 34.6283 14.0067 34.3552 13.3908 33.9553C12.1414 33.0488 11.2194 31.7604 10.7631 30.2838C10.1044 28.1908 9.88078 25.9847 10.1062 23.8017C10.2225 21.7815 10.8912 19.8324 12.0391 18.1677C12.4692 17.593 13.0111 17.1116 13.6321 16.7525C14.2531 16.3935 14.9402 16.1643 15.652 16.0788C16.8917 15.905 18.1528 16.1739 19.2145 16.8384C20.3242 17.6174 21.1704 18.7172 21.64 19.9908C22.3419 21.8139 22.6685 23.7605 22.6001 25.7134V25.6754ZM32.3273 21.5228C32.7931 24.0333 32.7931 26.6085 32.3273 29.119C31.8719 31.6844 30.7768 34.0927 29.1438 36.1203C27.2833 38.3496 24.8237 39.9973 22.0569 40.8679C19.543 41.6775 16.8894 41.9576 14.2624 41.6909C11.1078 41.4301 8.09683 40.2556 5.59632 38.3105C3.16503 36.327 1.42995 33.6166 0.644284 30.575C0.302052 29.2713 0.102956 27.934 0.0505419 26.587C0.0505419 17.7415 0.0505419 8.8792 0.0505419 0H10.1568C10.1568 3.36768 10.1568 6.73536 10.1568 10.1284C13.3818 9.02846 16.8309 8.75855 20.1872 9.34342C23.2505 9.84845 26.0832 11.29 28.2974 13.4707C30.4581 15.6571 31.8996 18.4536 32.4284 21.4848L32.3273 21.5228ZM65.501 0.0633061H75.2156C75.2156 7.57096 75.2156 15.0659 75.2156 22.5736C75.3791 22.4433 75.5127 22.2792 75.6072 22.0925C78.298 17.9905 81.0141 13.9012 83.7048 9.78653H96.3376C92.2614 14.6903 88.1684 19.5857 84.0585 24.4727C83.9701 24.5613 83.907 24.6879 84.0585 24.7765C88.619 30.1952 93.2047 35.5885 97.7399 41.0072H85.385C85.3315 41.014 85.2772 41.0058 85.2281 40.9834C85.179 40.9611 85.1371 40.9255 85.1071 40.8806C81.8225 36.095 78.5507 31.2966 75.2409 26.5236C75.2409 31.3473 75.2409 36.1583 75.2409 40.9819C73.8765 41.0452 72.4996 40.9819 71.1352 40.9819H65.5389L65.501 0.0633061ZM63.4671 28.562H43.3305C43.4464 29.9965 44.1119 31.3304 45.1875 32.2842C46.8553 33.6239 48.9126 34.3837 51.0491 34.4491C54.3448 34.6069 57.6424 34.1783 60.789 33.183C61.2058 35.386 61.648 37.5762 62.0522 39.7791C58.3344 41.151 54.3907 41.804 50.4301 41.7035C48.0429 41.6781 45.677 41.2501 43.4315 40.4375C41.8128 39.8693 40.3104 39.0113 38.9974 37.9054C37.5702 36.6817 36.4202 35.1666 35.6245 33.4616C34.5491 31.0764 34.0141 28.4822 34.058 25.8653C34.0338 23.2796 34.5368 20.7163 35.536 18.3323C36.6364 15.6833 38.4628 13.4008 40.8039 11.7489C43.0132 10.2336 45.5864 9.3375 48.2572 9.1535C50.4521 8.94015 52.6675 9.1639 54.7758 9.81185C56.521 10.383 58.1117 11.349 59.4246 12.6351C60.6415 13.8453 61.6112 15.2816 62.2796 16.8637C63.7618 20.5745 64.1733 24.6281 63.4671 28.562ZM43.2547 21.8773H54.7379C54.7959 20.172 54.2449 18.502 53.184 17.1676C52.7026 16.6459 52.1153 16.2336 51.4616 15.9584C50.8079 15.6833 50.1029 15.5516 49.3942 15.5724C48.0073 15.5102 46.6499 15.9863 45.6044 16.9017C44.2677 18.2278 43.4593 19.9968 43.3305 21.8773H43.2547ZM126.176 23.042C126.678 27.1044 125.82 31.2187 123.738 34.7403C121.83 37.6841 118.951 39.862 115.603 40.8933C113.111 41.686 110.485 41.9617 107.884 41.7035C105.19 41.486 102.589 40.6172 100.304 39.1714C98.1203 37.7406 96.372 35.7344 95.2512 33.373C93.6924 29.8298 93.2516 25.8938 93.9879 22.0925C94.4853 18.9469 95.9414 16.0326 98.1567 13.7493C100.198 11.6731 102.788 10.2238 105.623 9.5713C106.67 9.32882 107.734 9.16797 108.806 9.0902C111.438 8.88173 114.084 9.22672 116.575 10.103C119.662 11.2226 122.277 13.3612 123.991 16.1674C125.232 18.2561 125.991 20.5961 126.214 23.0167L126.176 23.042ZM116.07 27.4099C116.371 25.0141 116.125 22.5812 115.35 20.2947C114.883 18.9164 114 17.7175 112.823 16.8637C111.763 16.1478 110.475 15.8543 109.21 16.0408C108.086 16.1538 107.029 16.6343 106.204 17.4081C105.166 18.458 104.432 19.7708 104.082 21.2063C103.609 23.0399 103.443 24.9394 103.589 26.8275C103.681 28.3908 104.063 29.9233 104.713 31.3473C105.265 32.5472 106.174 33.5466 107.316 34.2086C108.42 34.7788 109.68 34.9701 110.903 34.7529C112.247 34.4779 113.433 33.6932 114.213 32.5627C115.225 31.0521 115.842 29.3106 116.007 27.4985L116.07 27.4099ZM28.7143 58.1495C59.9257 53.7605 91.1498 49.3631 122.386 44.9573C122.386 48.2363 122.386 51.5154 122.386 54.7944C113.468 56.0605 104.574 57.3265 95.6681 58.5926C63.8082 63.0491 31.9188 67.5182 0 72C0 68.7336 0 65.463 0 62.1881C9.60092 60.8715 19.2018 59.4915 28.8154 58.1495H28.7143Z" fill="white"/>
</svg>
